<?xml version="1.0" encoding="UTF-8"?>
<svg version="1.1" viewBox="0 0 18 18" xmlns="http://www.w3.org/2000/svg">
 <path d="m5.1016 5.1777v7.6445h7.7969v-7.6445h-7.7969z" fill="#fff" opacity=".5"/>
 <path d="m9 0a9 9 0 0 0-9 9 9 9 0 0 0 9 9 9 9 0 0 0 9-9 9 9 0 0 0-9-9zm-4.4609 4.0527h8.9219a0.56256 0.56256 0 0 1 0.039062 0.0019531 0.56256 0.56256 0 0 1 0.056641 0.0058594 0.56256 0.56256 0 0 1 0.054687 0.011719 0.56256 0.56256 0 0 1 0.052734 0.019531 0.56256 0.56256 0 0 1 0.052735 0.021484 0.56256 0.56256 0 0 1 0.048828 0.029297 0.56256 0.56256 0 0 1 0.044922 0.03125 0.56256 0.56256 0 0 1 0.042969 0.037109 0.56256 0.56256 0 0 1 0.037109 0.041016 0.56256 0.56256 0 0 1 0.035156 0.044922 0.56256 0.56256 0 0 1 0.029297 0.048828 0.56256 0.56256 0 0 1 0.023438 0.050781 0.56256 0.56256 0 0 1 0.019531 0.052734 0.56256 0.56256 0 0 1 0.013672 0.054687 0.56256 0.56256 0 0 1 0.009765 0.054688 0.56256 0.56256 0 0 1 0.001954 0.056641v8.7695a0.56256 0.56256 0 0 1-0.001954 0.039062 0.56256 0.56256 0 0 1-0.005859 0.056641 0.56256 0.56256 0 0 1-0.011719 0.054687 0.56256 0.56256 0 0 1-0.019531 0.052735 0.56256 0.56256 0 0 1-0.021484 0.052734 0.56256 0.56256 0 0 1-0.029297 0.048828 0.56256 0.56256 0 0 1-0.03125 0.044922 0.56256 0.56256 0 0 1-0.03711 0.042969 0.56256 0.56256 0 0 1-0.041015 0.037109 0.56256 0.56256 0 0 1-0.044922 0.035156 0.56256 0.56256 0 0 1-0.048828 0.029297 0.56256 0.56256 0 0 1-0.050781 0.023438 0.56256 0.56256 0 0 1-0.052735 0.019531 0.56256 0.56256 0 0 1-0.054687 0.013672 0.56256 0.56256 0 0 1-0.054688 0.009765 0.56256 0.56256 0 0 1-0.05664 0.001954h-8.9219a0.56256 0.56256 0 0 1-0.039062-0.001954 0.56256 0.56256 0 0 1-0.056641-0.005859 0.56256 0.56256 0 0 1-0.054688-0.011719 0.56256 0.56256 0 0 1-0.052734-0.019531 0.56256 0.56256 0 0 1-0.052734-0.021484 0.56256 0.56256 0 0 1-0.048828-0.029297 0.56256 0.56256 0 0 1-0.044922-0.03125 0.56256 0.56256 0 0 1-0.042969-0.03711 0.56256 0.56256 0 0 1-0.037109-0.041015 0.56256 0.56256 0 0 1-0.035156-0.044922 0.56256 0.56256 0 0 1-0.029297-0.048828 0.56256 0.56256 0 0 1-0.023438-0.050781 0.56256 0.56256 0 0 1-0.019531-0.052735 0.56256 0.56256 0 0 1-0.013672-0.054687 0.56256 0.56256 0 0 1-0.0097656-0.054688 0.56256 0.56256 0 0 1-0.0019531-0.05664v-8.7695a0.56256 0.56256 0 0 1 0.0019531-0.039062 0.56256 0.56256 0 0 1 0.0058594-0.056641 0.56256 0.56256 0 0 1 0.011719-0.054687 0.56256 0.56256 0 0 1 0.019531-0.052734 0.56256 0.56256 0 0 1 0.021484-0.052734 0.56256 0.56256 0 0 1 0.029297-0.048828 0.56256 0.56256 0 0 1 0.03125-0.044922 0.56256 0.56256 0 0 1 0.037109-0.042969 0.56256 0.56256 0 0 1 0.041016-0.037109 0.56256 0.56256 0 0 1 0.044922-0.035156 0.56256 0.56256 0 0 1 0.048828-0.029297 0.56256 0.56256 0 0 1 0.050781-0.023438 0.56256 0.56256 0 0 1 0.052734-0.019531 0.56256 0.56256 0 0 1 0.054688-0.013672 0.56256 0.56256 0 0 1 0.054688-0.0097656 0.56256 0.56256 0 0 1 0.056641-0.0019531z" fill="#fff" opacity=".5"/>
</svg>
