<?xml version="1.0" encoding="UTF-8"?>
<svg version="1.1" viewBox="0 0 18 18" xmlns="http://www.w3.org/2000/svg">
 <g fill="#fff">
  <path d="m4.1953 6.7148v7.5762h7.7852v-7.5762h-7.7852z" opacity=".5"/>
  <path d="m6.6309 4.166v1.4238h5.541c0.25374-1e-7 0.48629 0.10738 0.65625 0.27734s0.27734 0.40251 0.27734 0.65625v4.8945h0.77734v-7.252z" opacity=".5"/>
  <path d="m9 0a9 9 0 0 0-9 9 9 9 0 0 0 9 9 9 9 0 0 0 9-9 9 9 0 0 0-9-9zm-2.9316 3.041h8.377a0.56256 0.56256 0 0 1 0.03906 0.00195 0.56256 0.56256 0 0 1 0.05664 0.00586 0.56256 0.56256 0 0 1 0.05469 0.011719 0.56256 0.56256 0 0 1 0.05274 0.019531 0.56256 0.56256 0 0 1 0.05273 0.021484 0.56256 0.56256 0 0 1 0.04883 0.029297 0.56256 0.56256 0 0 1 0.04492 0.03125 0.56256 0.56256 0 0 1 0.04297 0.037109 0.56256 0.56256 0 0 1 0.03711 0.041016 0.56256 0.56256 0 0 1 0.03516 0.044922 0.56256 0.56256 0 0 1 0.0293 0.048828 0.56256 0.56256 0 0 1 0.02344 0.050781 0.56256 0.56256 0 0 1 0.01953 0.052734 0.56256 0.56256 0 0 1 0.01367 0.054687 0.56256 0.56256 0 0 1 0.0098 0.054687 0.56256 0.56256 0 0 1 2e-3 0.056641v8.377a0.56256 0.56256 0 0 1-2e-3 0.03906 0.56256 0.56256 0 0 1-0.0059 0.05664 0.56256 0.56256 0 0 1-0.01172 0.05469 0.56256 0.56256 0 0 1-0.01953 0.05274 0.56256 0.56256 0 0 1-0.02148 0.05273 0.56256 0.56256 0 0 1-0.0293 0.04883 0.56256 0.56256 0 0 1-0.03125 0.04492 0.56256 0.56256 0 0 1-0.03711 0.04297 0.56256 0.56256 0 0 1-0.04101 0.03711 0.56256 0.56256 0 0 1-0.04492 0.03516 0.56256 0.56256 0 0 1-0.04883 0.0293 0.56256 0.56256 0 0 1-0.05078 0.02344 0.56256 0.56256 0 0 1-0.05273 0.01953 0.56256 0.56256 0 0 1-0.05469 0.01367 0.56256 0.56256 0 0 1-0.05469 0.0098 0.56256 0.56256 0 0 1-0.05664 2e-3h-1.3398v1.9395c0 0.25374-0.10738 0.48629-0.27734 0.65625-0.16996 0.16996-0.40251 0.27734-0.65625 0.27734h-8.168c-0.25374 0-0.48629-0.10738-0.65625-0.27734-0.16996-0.17005-0.27734-0.4026-0.27734-0.65634v-7.959c0-0.25374 0.10738-0.48629 0.27734-0.65625 0.16996-0.16996 0.40251-0.27734 0.65625-0.27734h1.502v-1.9863a0.56256 0.56256 0 0 1 0.00195-0.039063 0.56256 0.56256 0 0 1 0.00586-0.056641 0.56256 0.56256 0 0 1 0.011719-0.054687 0.56256 0.56256 0 0 1 0.019531-0.052734 0.56256 0.56256 0 0 1 0.021484-0.052734 0.56256 0.56256 0 0 1 0.029297-0.048828 0.56256 0.56256 0 0 1 0.03125-0.044922 0.56256 0.56256 0 0 1 0.037109-0.042969 0.56256 0.56256 0 0 1 0.041016-0.037109 0.56256 0.56256 0 0 1 0.044922-0.035156 0.56256 0.56256 0 0 1 0.048828-0.029297 0.56256 0.56256 0 0 1 0.050781-0.023437 0.56256 0.56256 0 0 1 0.052734-0.019531 0.56256 0.56256 0 0 1 0.054687-0.013672 0.56256 0.56256 0 0 1 0.054688-0.00977 0.56256 0.56256 0 0 1 0.056641-0.00195z" opacity=".5"/>
 </g>
</svg>
