<?xml version="1.0" encoding="UTF-8"?>
<svg version="1.1" viewBox="0 0 18 18" xmlns="http://www.w3.org/2000/svg">
 <path d="m9 0a9 9 0 0 0-9 9 9 9 0 0 0 9 9 9 9 0 0 0 9-9 9 9 0 0 0-9-9zm-4.7324 3.7441a0.56256 0.56256 0 0 1 0.4043 0.16992l4.332 4.2969 4.332-4.2969a0.56279 0.56279 0 1 1 0.79297 0.79883l-4.3262 4.291 4.3262 4.291a0.56279 0.56279 0 1 1-0.79297 0.79883l-4.332-4.2969-4.332 4.2969a0.56279 0.56279 0 1 1-0.79297-0.79883l4.3262-4.291-4.3262-4.291a0.56256 0.56256 0 0 1 0.38867-0.96875z" class="error" fill="#ff0404"/>
</svg>
