<?xml version="1.0" encoding="UTF-8"?>
<svg version="1.1" viewBox="0 0 18 18" xmlns="http://www.w3.org/2000/svg">
 <path d="m6.0293 2.8125a0.56256 0.56256 0 0 0-0.5625 0.5625v1.9863h-1.502c-0.50748 0-0.93359 0.42611-0.93359 0.93359v7.959c0 0.50748 0.42611 0.93359 0.93359 0.93359h8.1699c0.50748 0 0.93359-0.42611 0.93359-0.93359v-1.9395h1.3379a0.56256 0.56256 0 0 0 0.5625-0.5625v-8.377a0.56256 0.56256 0 0 0-0.5625-0.5625zm0.5625 1.125h7.252v7.252h-0.77539v-4.8945c0-0.50748-0.42611-0.93359-0.93359-0.93359h-5.543zm-2.4355 2.5488h7.7871v7.5762h-7.7871z" fill="#fff"/>
</svg>
